<?xml version="1.0" encoding="UTF-8" standalone="no"?>

<svg
   width="18.5cm"
   height="6cm"
   viewBox="0 0 18.5 6"
   version="1.1"
   id="svg5"
   xmlns="http://www.w3.org/2000/svg"
   xmlns:svg="http://www.w3.org/2000/svg" >
  <g
      id="outline"
      style="fill:none;stroke:white;stroke-width:1.4" >
	 <path
         id="m"
		 d="m 1,5.7 v -1.2 a 1,1 0 0 1 2,0 v 1.2 v -1.2 a 1,1 0 0 1 2,0 v 1.2" />
	 <path
         id="i"
		 d="m 6.5,2.8 v 2.9" />
	 <path
         id="n"
		 d="m 8,5.7 v -1.2 a 1,1 0 0 1 2,0 v 1.2" />
	 <path
         id="u"
		 d="m 11.5,2.8 v 1.2 a 1,1 0 0 0 2,0 v -1.2" />
	 <path
         id="i2"
		 d="m 15,2.8 v 2.9" />
	 <path
         id="t"
		 d="m 0.3,2 h 5.4 m 0.1,0 h 1.4 m 0.1,0 h 6.9 m 0.1,0 h 1.4 m 0.1,0 h 2.4 m -1.7,-1.7 v 3.7 a 1,1 0 0 0 1,1 h 0.7" />
  </g>
  <g
      id="fill"
      style="fill:none;stroke:black;stroke-width:1" >
	 <path
         id="m"
		 d="m 1,5.5 v -1 a 1,1 0 0 1 2,0 v 1 v -1 a 1,1 0 0 1 2,0 v 1" />
	 <path
         id="i"
		 d="m 6.5,3 v 2.5" />
	 <path
         id="n"
		 d="m 8,5.5 v -1 a 1,1 0 0 1 2,0 v 1" />
	 <path
         id="u"
		 d="m 11.5,3 v 1 a 1,1 0 0 0 2,0 v -1" />
	 <path
         id="i2"
		 d="m 15,3 v 2.5" />
	 <path
         id="t"
		 style="stroke:midnightblue"
		 d="m 0.5,2 h 5 m 0.5,0 h 1 m 0.5,0 h 6.5 m 0.5,0 h 1 m 0.5,0 h 2 m -1.5,-1.5 v 3.5 a 1,1 0 0 0 1,1 h 0.5" />
  </g>
</svg>